<?xml version="1.0" encoding="utf-8"?>
<!-- Generator: Adobe Illustrator 16.0.0, SVG Export Plug-In . SVG Version: 6.00 Build 0)  -->
<!DOCTYPE svg PUBLIC "-//W3C//DTD SVG 1.1//EN" "http://www.w3.org/Graphics/SVG/1.1/DTD/svg11.dtd">
<svg version="1.1" id="Calque_1" xmlns="http://www.w3.org/2000/svg" xmlns:xlink="http://www.w3.org/1999/xlink" x="0px" y="0px"
	 width="59.939px" height="30px" viewBox="0 -3 59.939 30" enable-background="new 0 -3 59.939 30" xml:space="preserve">
<g id="Calque_3">
	<polygon fill="#FFFFFF" points="32.966,27 32.966,14.97 60.001,14.97 60.001,17.039 46.834,17.039 59.981,23.602 59.981,24.813 
		44.568,17.039 40.154,17.039 60.001,27 53.278,27 34.998,17.898 34.998,27 	"/>
	<polygon fill="#FFFFFF" points="27.054,27 27.054,14.97 0.02,14.97 0.02,17.039 13.187,17.039 0.039,23.602 0.039,24.813 
		15.452,17.039 19.867,17.039 0.02,27 6.742,27 25.023,17.898 25.023,27 	"/>
	<polygon fill="#FFFFFF" points="27.054,-2.999 27.054,9.032 0.02,9.032 0.02,6.962 13.187,6.962 0.039,0.4 0.039,-0.811 
		15.452,6.962 19.867,6.962 0.02,-2.999 6.742,-2.999 25.023,6.103 25.023,-2.999 	"/>
	<polygon fill="#FFFFFF" points="32.966,-2.999 32.966,9.032 60.001,9.032 60.001,6.962 46.834,6.962 59.981,0.4 59.981,-0.811 
		44.568,6.962 40.154,6.962 60.001,-2.999 53.278,-2.999 34.998,6.103 34.998,-2.999 	"/>
</g>
<g id="Calque_5">
	<polygon fill="#00247D" points="6.718,-2.991 24.999,-2.991 24.999,6.142 	"/>
	<polygon fill="#00247D" points="13.163,7.001 0,7.001 0,0.478 	"/>
	<polygon fill="#00247D" points="0.02,17.078 13.163,17.078 0.02,23.641 	"/>
	<polygon fill="#00247D" points="24.999,27 24.999,17.898 6.797,27 	"/>
	<polygon fill="#00247D" points="34.998,27 34.998,17.898 53.278,27 	"/>
	<polygon fill="#00247D" points="59.981,23.602 59.981,17.039 46.834,17.039 	"/>
	<polygon fill="#00247D" points="60.001,7.001 46.834,7.001 60.001,0.322 	"/>
	<polygon fill="#00247D" points="53.202,-2.991 34.998,-2.991 34.998,6.063 	"/>
</g>
<g id="Calque_4">
	<polygon fill="#CF142B" points="60.001,-2.991 55.544,-2.991 35.584,7.001 40.154,7.001 	"/>
	<polygon fill="#CF142B" points="19.96,7.001 0.02,-2.991 0.02,-0.811 15.468,7.001 	"/>
	<polygon fill="#CF142B" points="0.02,27 19.96,17.078 24.335,17.078 4.493,27 	"/>
	<polygon fill="#CF142B" points="60.001,27 40.077,17.039 44.568,17.039 60.001,24.813 	"/>
	<polygon fill="#CF142B" points="60.001,14.97 60.001,9.071 32.966,9.071 32.966,-2.991 27.03,-2.991 27.03,9.032 0,9.032 0,15.048 
		27.069,15.048 27.069,27 32.966,27 32.966,14.97 	"/>
</g>
</svg>
