<?xml version="1.0" encoding="utf-8"?>
<!-- Generator: Adobe Illustrator 16.0.0, SVG Export Plug-In . SVG Version: 6.00 Build 0)  -->
<!DOCTYPE svg PUBLIC "-//W3C//DTD SVG 1.1//EN" "http://www.w3.org/Graphics/SVG/1.1/DTD/svg11.dtd">
<svg version="1.1" id="Calque_2" xmlns="http://www.w3.org/2000/svg" xmlns:xlink="http://www.w3.org/1999/xlink" x="0px" y="0px"
	 width="100px" height="100px" viewBox="0 0 100 100" enable-background="new 0 0 100 100" xml:space="preserve">
<g>
	<path fill="#DAFF00" d="M49.914,1.424c-26.418,0-47.833,21.416-47.833,47.833c0,26.417,21.415,47.833,47.833,47.833
		c26.418,0,47.833-21.416,47.833-47.833C97.746,22.839,76.332,1.424,49.914,1.424z M70.635,25.476
		c-0.781,1.251-23.141,23.613-23.848,24.073c-1.219,0.792-1.511,0.834-2.761-0.365c-1.004-0.961-8.181-8.076-9.432-9.327
		c-1.25-1.25,0.938-3.126,1.876-2.031c0.938,1.094,7.034,7.347,7.659,7.815c0.626,0.469,1.251,0.886,2.188,0.104
		c0.938-0.782,21.417-21.207,22.51-22.146C69.922,22.662,71.416,24.226,70.635,25.476z M76.332,72.215
		c-0.939-0.156-9.441,0.369-9.441,0.369s-4,6.669-5.094,7.919c-1.094,1.251-2.191,1.247-3.285-0.316
		c-0.471-0.469-8.911-15.476-8.911-15.476s-8.441,14.325-9.379,16.151c-0.678,1.305-2.188,1.613-3.127,0
		c-0.938-1.613-4.794-8.23-4.794-8.23s-8.962-0.417-10.212-0.417c-1.251,0-1.72-1.251-1.251-2.188
		c0.469-0.938,7.451-12.35,8.91-15.319c-1.563-3.439-4.689-6.097-4.689-13.6c0-8.806,6.123-23.552,23.916-23.552
		c5.523,0,8.38,1.745,9.537,2.605c2.24,1.667-0.365,3.856-1.721,2.814c-0.83-0.639-1.84-2.032-8.128-2.032
		c-13.703,0-20.009,10.525-20.009,19.904s7.816,19.487,20.009,19.487c12.193,0,19.384-13.286,19.384-19.383
		c0-3.007-0.262-3.2-0.105-3.96c0.445-0.637,2.137-0.886,2.449-0.261s0.521,0.781,0.521,4.064c0.104,4.794-2.24,9.64-3.178,10.891
		c0.676,1.354,9.379,16.465,10.16,17.716C78.676,70.651,77.842,72.215,76.332,72.215z"/>
	<path fill="#DAFF00" d="M52.426,62.992l7.805,14.068l5.002-7.659h8.754c0,0-7.139-12.818-8.389-14.694
		C65.129,56.114,59.813,61.064,52.426,62.992z"/>
	<path fill="#DAFF00" d="M32.425,56.605c-1.25,1.876-7.383,12.978-7.383,12.978l8.718,0.495l5.022,7.209l7.691-13.618
		C37.929,62.054,32.895,58.013,32.425,56.605z"/>
</g>
</svg>
